# xmcd CD database file
#
# Track frame offsets:
#	150
#	15261
#	31892
#	52316
#	70105
#	89425
#	109421
#	116978
#	132128
#	154818
#	177425
#	193550
#	211723
#	224923
#
# Disc length: 3163 seconds
#
# Revision: 0
# Processed by: cddbd v1.5.1PL2 Copyright (c) Steve Scherf et al.
# Submitted via: CDex 1.51
#
DISCID=cf0c590e
DTITLE=Flipper - Salty Water
DYEAR=2004
DGENRE=Country
TTITLE0=Chancellor Street
TTITLE1=It's All About You
TTITLE2=Willie Barton Line
TTITLE3=Where Did You Go
TTITLE4=I Thought I Heard Your Dog Barkin
TTITLE5=Midland Blues
TTITLE6=Bravo Beast
TTITLE7=Motor City Man
TTITLE8=Your Disdain
TTITLE9=Swimmin the Frederica
TTITLE10=Emptiness (Klebold's Lament)
TTITLE11=Your Mind is Upside Down
TTITLE12=Robert's Song
TTITLE13=Rock of Ages
EXTD=YEAR: 2004
EXTT0=
EXTT1=
EXTT2=
EXTT3=
EXTT4=
EXTT5=
EXTT6=
EXTT7=
EXTT8=
EXTT9=
EXTT10=
EXTT11=
EXTT12=
EXTT13=
PLAYORDER=
